# xmcd
#
# Track frame offsets:
#	150
#	17365
#	31441
#	46145
#	64976
#	81157
#	93133
#	107321
#	119813
#	136785
#	152709
#	167206
#	182866
#	201022
#	218397
#	232664
#	245442
#	258323
#	273658
#	291324
#
# Disc length: 4071 seconds
#
# Revision: 0
# Processed by: cddbd v1.5.2PL0 Copyright (c) Steve Scherf et al.
# Submitted via: EasyCDDAExtractor 16.0.6.1
#
DISCID=0d0fe514
DTITLE=패티킴 - History-이별...
DYEAR=1900
DGENRE=Country
TTITLE0=이별
TTITLE1=사랑은 생명의 꽃
TTITLE2=누가
TTITLE3=머무는곳 그어딜지몰라도
TTITLE4=잃어버린 꿈속에
TTITLE5=님은 먼곳에
TTITLE6=연인의 길
TTITLE7=멀리 있어도
TTITLE8=J에게
TTITLE9=남과북 (누가이사람을모르시나요)
TTITLE10=살짜기 옵서예
TTITLE11=멍에
TTITLE12=사랑은영원히
TTITLE13=임의 곁으로
TTITLE14=서울의 모정
TTITLE15=서울의 찬가
TTITLE16=이븐나우 (Even NOW)
TTITLE17=아도르 (Adoro)
TTITLE18=이별(노래방)
TTITLE19=사랑은 생명의 꽃 (노래방)
EXTD=
EXTT0=
EXTT1=
EXTT2=
EXTT3=
EXTT4=
EXTT5=
EXTT6=
EXTT7=
EXTT8=
EXTT9=
EXTT10=
EXTT11=
EXTT12=
EXTT13=
EXTT14=
EXTT15=
EXTT16=
EXTT17=
EXTT18=
EXTT19=
PLAYORDER=
